<?xml version="1.0" encoding="UTF-8"?>
<svg version="1.1" viewBox="0 0 2048 1152" width="1280" height="1280" xmlns="http://www.w3.org/2000/svg">
<path transform="translate(0)" d="m0 0h2048v1152h-2048z" fill="#FDFDFD"/>
<path transform="translate(1829,319)" d="m0 0h2l1 6-1 11-1 53-4 18-11 28-5 13 5-4 2-2h5l-1 4-12 15-7 12 10-5 17-11 17-8 12-3 7-1 37-1h19l-1 5-9 7-8 13-8 15-8 10-9 8-11 5h-14l-16-8-14-9-7-3h-12l-9 4-3 9-1 5v28l9 55v4h2l1-5 7-14 7-9 8-7 14-8 45-15 14-7 4-1v2l2 1-7 10-4 10-4 12-5 8-6 7-11 7-7 2-24 2-13 4-10 7-7 7h-2l6 42 1 10v45l-4 27-1 6 6-8 7-6 15-8 27-11 19-10 12-8 10-8 10-9 14-14 5-1v13l-3 19-5 15-6 11-9 10-1 2 9 3 16 8 20 12 17 12 14 11 15 13 18 18 9 11 10 12 10 14 3 4v312h-568l-5-12-8-21-7-24-6-31-2-18-1-15v-27l2-24 4-26 7-28 9-27 11-24 11-21 12-19 12-16 9-11 11-12 6-7 8-7 10-10 14-11 19-14 15-9 16-9 23-11 28-10 21-6 25-5 24-3h7l-14-14-12-9-13-10-9-6-50-3-20-1-20-3-12-4-14-7-18-11-11-6v-4l14-2 35-3 17 1 21 5 20 8 4 1-11-12-11-16-7-16-5-15-2-9v-17l9-58 1-2 5 2 10 19 5 15v14l-8 16-9 16-2 6 1 9 6 14 10 15 9 10 5 6 8 7 9 8 17 13 14 11 12 9 11 9 10 9 7 8 7 10 8 16 5 15 2 12 1 17 7-25 5-26 3-25v-5l-21-7-12-7-11-11-10-14-9-10-9-8-10-6-16-5-4-3v-5l5-4 10-3h19l15 5 14 8 11 9 9 9 10 15 8 13v-9l-3-26-5-27-5-25-3-18-7-6-31-15-17-8-14-9-10-9-9-10-7-15-3-12v-33l5 1 5 16 7 11 10 9 29 17 10 8 12 12 9 14 9 18-2-15v-23l4-19 7-16 8-16-1-9-8-20-2-9v-18l4-22 6-18 8-16 10-16 7-9z" fill="#F8DEDC"/>
<path transform="translate(167,731)" d="m0 0h37l26 3 24 5 26 8 24 10 20 10 22 14 16 12 11 9 12 11 13 13 9 11 10 13 10 15 12 21 9 19 8 21 6 21 5 24 2 16 1 17v33l-2 23-5 25-7 25-10 25-7 16-1 1h-438v-355l10-8 20-14 21-12 21-10 28-10 28-7 26-4z" fill="#F7DEDC"/>
<path transform="translate(732)" d="m0 0h461l-2 5-12 13-7 8-12 14-11 12-9 11-13 14-7 8-9 10-9 11-7 7-9 11-13 14-9 11-14 15-7 8-9 10-12 14-10 11-9 11-14 15-7 8-3 3-4-2-12-11-8-7-14-12-10-9-8-7-11-10-11-9-7-7-11-9-15-14-11-9-14-13-11-9-7-7-11-9-13-12-11-9-8-8-11-9-13-12-11-9-7-7-11-9-9-9 4-6z" fill="#F8DEDC"/>
<path transform="translate(0,204)" d="m0 0 9 5 16 11 56 38 41 28 31 21 14 10 13 12 9 15 3 12v15l-4 13-8 14-26 38-11 16-11 14-6 9-13 20-14 22-17 25-21 31-17 25-11 16-17 25-8 11-7 8h-1z" fill="#F8DEDC"/>
<path transform="translate(1829,319)" d="m0 0h2l1 6-1 11-1 53-4 18-11 28-5 13 5-4 2-2h5l-1 4-12 15-7 12 10-5 17-11 17-8 12-3 7-1 37-1h19l-1 5-9 7-8 13-8 15-8 10-9 8-11 5h-14l-16-8-14-9-7-3h-12l-9 4-3 9-1 5v28l9 55v4h2l1-5 7-14 7-9 8-7 14-8 45-15 14-7 4-1v2l2 1-7 10-4 10-4 12-5 8-6 7-11 7-7 2-24 2-13 4-10 7-7 7h-2l6 42 1 10v45l-4 27-1 6 6-8 7-6 15-8 27-11 19-10 12-8 10-8 10-9 14-14 5-1v13l-3 19-5 15-6 11-11 12-8 7-14 8-14 5-17 3-30 2-14 4-8 5-16 43-11 24-8 14h-3l3-9 14-34 3-9v-17l-2-26-5-16-9-17-9-12-1-3h7l7 8 9 16 6 16 3 16 1 17 7-25 5-26 3-25v-5l-21-7-12-7-11-11-10-14-9-10-9-8-10-6-16-5-4-3v-5l5-4 10-3h19l15 5 14 8 11 9 9 9 10 15 8 13v-9l-3-26-5-27-5-25-3-18-7-6-31-15-17-8-14-9-10-9-9-10-7-15-3-12v-33l5 1 5 16 7 11 10 9 29 17 10 8 12 12 9 14 9 18-2-15v-23l4-19 7-16 8-16-1-9-8-20-2-9v-18l4-22 6-18 8-16 10-16 7-9z" fill="#C6C3C3"/>
<path transform="translate(219,792)" d="m0 0 2 1 1 4v38l-6 18-12 25-4 9-6 5-9 6-6 9-6 12-8 11-7 11-2 6-4 23-7 21-3 6 19-10 58-26 14-8 16-11 12-12 10-11 13-21 8-14 3-5-2-9-2-5v-19l5-27 2-5h2l-5 25-1 8v17l3 7 4-1 5-5 9-8 13-10 11-9 14-12 11-11 4-5-1 4-8 10-13 12-25 20-14 11-5 6 16-8 15-8 12-9 5-5 9-10 7-12 3-9v-4l-15 10-13 10-10 9-8 7-12 12-4 6h-2l2-5 9-11 17-17 14-10 17-11 8-4 1 3-4 15-6 12-9 11-13 10-15 9-20 10-8 6-13 26-8 12-9 11-9 10-1 1 25-4 12-4 5-4 8-13 6-9 11-11 17-13 10-8 12-11 5-3 1 2-8 17-10 13-12 13-13 10-12 8h-2v-2l13-9 10-9 12-12 12-16v-2l-8 10-13 13-11 9-10 10-16 14h2v2l-14 6-18 4-17 3-7 3-19 12-22 11-28 12-29 14-14 8-13 9-16 11-14 11-12 11-9 9-11 14-11 15-9 16 4-2 14-9 25-12 21-7 36-10 5-3 4-9 6-18 7-13 3-2-2 5-5 10-5 16 10-18 5-10 1 3-8 16-6 10 7-6 4-3-2 5-2 4 17-12 13-10 19-12 15-9 18-8 1 3-9 17-7 6-17 8-19 5-8 2-12 6-14 10-6 5 22-5 23-4h26l18 2 15 4 5 3-3 3-21 11-7 2-11-1-14-7-14-8h-27l-23 6-25 7-9 2 21 2 21 5 9 4v2l-22 6h-21l-18-5-15-5-9 2-20 10-12 9-5 5-4 6-9 25-4 13-1-4 6-21 6-16 12-23 10-15 10-13 12-13 11-11 14-11 17-12 11-8 6-7 11-21 4-13 3-17 1-4v-14l-3-21-4-15-5 1h-14l-10-4-11-9-7-9-4-7v-3l11 1 15 5 15 8 7 6-4-11-6-10-7-9-7-12-2-8v-12l4-12 3-5 5 5 6 9 9 11 3 7v18l-3 10v11l6 21 4 16 3 24 11-19v-6l-5-11-1-4v-13l2-13 10-27h2l4 10 1 6v29l-2 8h2l2-23 5-15 14-25 15-39z" fill="#C4B5B4"/>
<path transform="translate(1928,652)" d="m0 0h3v13l-3 19-5 15-6 11-11 12-8 7-14 8-14 5-17 3-30 2-14 4-8 5-16 43-11 24-8 14h-3l3-9 14-34 3-9v-17l-2-26-5-16-9-17-9-12-1-3h7l7 8 9 16 6 16 3 16 1 17 7-25 5-26 3-21h3 2v15l-3 19-1 6 6-8 7-6 15-8 27-11 19-10 12-8 10-8 10-9 14-14z" fill="#C1B0AF"/>
<path transform="translate(181,332)" d="m0 0 4 5 5 10 2 9v15l-4 13-8 14-26 38-11 16-6 8-5-3-9-10-13-17-13-16-6-8 2-4 17-14 13-10 15-12 28-22 10-8z" fill="#F8DEDC"/>
<path transform="translate(1647,481)" d="m0 0 5 2 10 19 5 15v14l-8 16-9 16-2 6 1 9 6 14 10 15 9 10 5 6 8 7 9 8 17 13 14 11 12 9 11 9 10 9 3 5-7 1-4-5-8-7-11-9-17-13-9-6-50-3-20-1-20-3-12-4-14-7-18-11-11-6v-4l14-2 35-3 17 1 21 5 20 8 4 1-11-12-11-16-7-16-5-15-2-9v-17l9-58z" fill="#C6C3C3"/>
<path transform="translate(219,792)" d="m0 0 2 1 1 4v38l-6 18-12 25-4 9-6 5-9 6-6 9-6 12-8 11-7 11-2 6-4 23-2 6h-3l4-17 2-12 1-4v-14l-3-21-4-15-5 1h-14l-10-4-11-9-7-9-4-7v-3l11 1 15 5 15 8 7 6-4-11-6-10-7-9-7-12-2-8v-12l4-12 3-5 5 5 6 9 9 11 3 7v18l-3 10v11l6 21 4 16 3 24 11-19v-6l-5-11-1-4v-13l2-13 10-27h2l4 10 1 6v29l-2 8h2l2-23 5-15 14-25 15-39z" fill="#C1B2B2"/>
<path transform="translate(170,321)" d="m0 0 4 2 7 8-2 4-28 22-15 12-28 22-16 13 2 5 11 13 13 17 9 11 7 8 2 1-2 5-6 7-8-6-9-11-33-42-5-7v-6l7-7 13-10 14-11 15-12 13-10 15-12 13-10z" fill="#C0AEAD"/>
<path transform="translate(1924,663)" d="m0 0h1l-1 14-4 15-8 16-10 11-16 11-16 6-19 3-21 1-17 3-5 1 3-6 6-8 8-6 17-8 23-10 21-11 12-9 14-12z" fill="#F8DEDC"/>
<path transform="translate(371,804)" d="m0 0 2 1-3 14-4 10-7 10-7 8-16 11-14 8-21 11-4 5-12 24-8 12-9 11-9 10-1 1 25-4 12-4 5-4 8-13 6-9 11-11 17-13 10-8 12-11 5-3 1 2-8 17-10 13-12 13-13 10-12 8h-2v-2l13-9 10-9 12-12 12-16v-2l-8 10-13 13-11 9-10 10-16 14h2v2l-14 6-18 4-17 3-7 3-19 12-22 11-28 12-29 14-14 8-13 9-16 11-14 11-12 11-9 9-11 14-11 15-9 16 4-2 14-9 25-12 5 2v2l7 2v2l-15-3-12 5-17 9-12 9-6 9-9 25-4 13-1-4 6-21 6-16 12-23 10-15 10-13 12-13 11-11 14-11 17-12 11-8 6-7 12-22 2-1-1 8-4 10-2 4 19-10 58-26 14-8 16-11 12-12 10-11 13-21 8-14 3-5-2-9-2-5v-19l5-27 2-5h2l-5 25-1 8v17l3 7 4-1 5-5 9-8 13-10 11-9 14-12 11-11 4-5-1 4-8 10-13 12-25 20-14 11-5 6 16-8 15-8 12-9 5-5 9-10 7-12 3-9v-4l-15 10-13 10-10 9-8 7-12 12-4 6h-2l2-5 9-11 17-17 14-10 17-11z" fill="#C1B1B0"/>
<path transform="translate(1604,617)" d="m0 0h18l21 4 19 7 16 8 16 10 1 2h-11l-54-3-15-3-15-6-16-10-6-4 3-2 11-2z" fill="#FDFCFC"/>
<path transform="translate(1889,538)" d="m0 0h2l-3 11-7 16-7 8-12 6-27 3-14 4-12 8h-3l8-17 7-9 10-9 15-7 29-9z" fill="#FDFDFD"/>
<path transform="translate(1696,464)" d="m0 0 17 17 14 8 17 10 10 9 11 11 8 13 4 7-1 3-37-17-15-9-10-8-7-8-7-12-4-13z" fill="#FDFDFC"/>
<path transform="translate(1824,334)" d="m0 0h1v48l-2 16-8 24-8 18h-2l-5-11-2-8v-23l3-17 5-16 8-17z" fill="#FDFDFC"/>
<path transform="translate(360,872)" d="m0 0 2 1-10 14-11 12-12 12-14 10h-2v2l21-14 16-4 8-1h16l17 3 21 7 2 1-1 3-13 6-18 5h-10l-19-5-19-9-11 6-14 8-5 2-3-2 15-14 8-7 13-12 8-7 9-9z" fill="#C1B1B0"/>
<path transform="translate(1889,450)" d="m0 0h18l-6 7-16 16-10 6-6 2h-7l-24-5-24-1 5-5 14-9 13-6 15-4z" fill="#FDFDFD"/>
<path transform="translate(1768,693)" d="m0 0h14l18 1 5 1-1 13-4 24-6 25-4 13h-1l-1-20-3-16-6-16-9-16-6-8z" fill="#F8DEDC"/>
<path transform="translate(199,1049)" d="m0 0h26l18 2 15 4 5 3-3 3-21 11-7 2-11-1-14-7-14-8-26-1 3-3z" fill="#C1B2B1"/>
<path transform="translate(1924,663)" d="m0 0h1l-1 14-4 15-8 16-10 11-36-12 3-3 17-9 12-9 14-12z" fill="#FDFDFD"/>
<path transform="translate(125,803)" d="m0 0 5 5 6 9 9 11 3 7v18l-3 10v11l2 6-1 4-4-9-6-11-9-12-7-12-2-8v-12l4-12z" fill="#C1B2B1"/>
<path transform="translate(96,862)" d="m0 0 11 1 15 5 15 8 11 9 3 10 4 16 3 24 10-17 6-3-2 5-6 9-7 10-3 8-4 23-2 6h-3l4-17 2-12 1-4v-14l-3-21-4-15-5 1h-14l-10-4-11-9-7-9-4-7z" fill="#C1B1B1"/>
<path transform="translate(369,807)" d="m0 0h1l-1 8-5 12-9 12-6 6h-2l-2 4-14 10-23 12-5 3-2-1 7-8 15-12 9-7 17-14 12-11 6-9-9 10-9 9-11 9-16 13-14 11-3 2 2-5 6-8 16-16 11-9 12-10 16-10z" fill="#F8DEDC"/>
<path transform="translate(219,792)" d="m0 0 2 1 1 4v38l-6 18-12 25-4 9-6 5-7 4-2-1 12-9 4-8 13-28 4-17 1-22-7 21-19 40-5 14-4 1v-15l5-15 14-25 15-39z" fill="#C1B1B0"/>
<path transform="translate(105,1070)" d="m0 0 3 1 1 2 21 2 21 5 9 4v2l-22 6h-21l-18-5-3-2v-2l-11-2 1-4 9-4z" fill="#C1B1B1"/>
<path transform="translate(368,860)" d="m0 0 2 2-8 17-10 13-12 13-13 10-12 8h-2v-2l13-9 10-9 12-12 12-16v-2l-8 10-13 13-11 9-10 10-16 14h2v2l-14 6-18 4-13 1 1-2 23-4 12-4 5-4 8-13 6-9 11-11 17-13 10-8 12-11z" fill="#C1B1B0"/>
<path transform="translate(1894,471)" d="m0 0 1 2-7 12-9 10-11 6-11 1-10-3-18-12-10-6v-1h15l20 4 4 1h14l9-4 11-8z" fill="#FDFCFC"/>
<path transform="translate(359,907)" d="m0 0 16 1 20 4 15 4-1 2-34-4-15-3 3 1 22 4 17 2 3 2-19 6-4 1h-9l-17-4-20-9-1-2 14-3z" fill="#F8DEDC"/>
<path transform="translate(1811,695)" d="m0 0 21 3 23 5 1 2-26 11-11 6-9 8-4 6-1-3 3-16z" fill="#F8DEDC"/>
<path transform="translate(148,975)" d="m0 0h1l-1 8-4 10-2 4 19-10 11-5h2v2l-28 14-16 10-10 7-14 10-13 10-12 11-9 9-11 14-11 15-9 16 4-2 14-9 25-12 5 2v2l7 2v2l-15-3-12 5-17 9-12 9-6 9-9 25-4 13-1-4 6-21 6-16 12-23 10-15 10-13 12-13 11-11 14-11 17-12 11-8 6-7 12-22z" fill="#C1B2B1"/>
<path transform="translate(219,808)" d="m0 0h1v12l-2 19-5 16-12 25-4 7-11 8-2-1 9-24 15-31 8-21z" fill="#F8DEDC"/>
<path transform="translate(1723,608)" d="m0 0h10l12 3 17 9 9 7 7 6 8 10 13 22 1 4-4-2-7-6-11-14-15-15-15-10-14-7-9-3-7-1 1-2z" fill="#FDFBFB"/>
<path transform="translate(1651,496)" d="m0 0 4 4 6 15 1 13-4 10-10 18-3 6-2-2v-23l7-39z" fill="#FDFCFC"/>
<path transform="translate(1928,652)" d="m0 0h3v13l-3 19-5 15-6 11-9 10-6 1 6-7 4-5 1-4 6-13 4-15 1-13-8 8-11 9-9 8-8 5-5 2-15 8-9 2 5-4 19-10 17-12 12-11 8-7z" fill="#C5BFBF"/>
<path transform="translate(1734,621)" d="m0 0 6 2 12 7 16 13 10 11 8 10 5 5 10 8-3 1-14-5-11-7-8-9-10-14-11-13-10-8z" fill="#FDFBFB"/>
<path transform="translate(300,812)" d="m0 0h2l2 5 2 16-1 21-1 9 2-1-2 6h-2l-2 4-2-1-2 2-3-9v-17l4-23 2-11z" fill="#C1B1B0"/>
<path transform="translate(126,808)" d="m0 0 5 5 7 9 5 6 3 7v16l-3 11-2 1-5-14-7-16-2-7-1-8z" fill="#F8DEDC"/>
<path transform="translate(178 1e3)" d="m0 0h3v16l-5 12-8 11-4 2-5 5-4 2 8-15 6-12-1 1-12 23-3 3 2-9 5-14 5-8 2-5 7-6z" fill="#C1B3B2"/>
<path transform="translate(165,1015)" d="m0 0 1 2-6 11-4 11-2 7 10-18 5-10 1 3-8 16-6 10 7-6 4-3-2 5-2 4 10-7h2l-2 4-13 9-6 5 14-3-2 3-23 6-25 7-11 1 2-3 35-10 4-5 8-24 7-13z" fill="#C1B1B0"/>
<path transform="translate(371,804)" d="m0 0 2 1-3 14-4 10-7 10-7 8-16 11-10 6h-2v-2l13-8 9-7 5-5 8-9 7-12 3-9v-4l-15 10-13 10-10 9-8 7-12 12-4 6h-2l2-5 9-11 17-17 14-10 17-11z" fill="#C1B0AF"/>
<path transform="translate(367,810)" d="m0 0 1 3-9 11-13 12-25 20-14 11-5 6 16-8 6-2v2l-23 12-4 5-3 6h-3l2-5 2-4-2-9-2-5v-19l5-27 2-5h2l-5 25-1 8v17l3 7 4-1 5-5 9-8 13-10 11-9 14-12 11-11z" fill="#C1B1B0"/>
<path transform="translate(194,1056)" d="m0 0 13 1 20 4h27l-5 4-13 6h-14l-28-14z" fill="#F8DEDC"/>
<path transform="translate(175,849)" d="m0 0h1v14l-1 22-2 18-2 4-3-4-3-8v-13l2-12 7-20z" fill="#F8DEDC"/>
<path transform="translate(199,1051)" d="m0 0h23l18 2 17 4 2 2-13 1h-20l-26-5h-19v-1z" fill="#F8DFDD"/>
<path transform="translate(245,996)" d="m0 0 1 3-9 17-7 6-17 8-11 3h-5l3-3 19-7 15-8 7-12-5 4-16 12-15 8-6 2 1-3 16-8 13-9 8-6-16 8-16 10-2-1 4-4 20-12z" fill="#C3B4B3"/>
<path transform="translate(89,1079)" d="m0 0 18 1 22 4 23 1-3 2-11 3h-21l-21-6-11-3z" fill="#F8DEDC"/>
<path transform="translate(217,801)" d="m0 0h1l-1 10-7 21-16 33-7 18h-1l1-15 8-17 8-14 5-12z" fill="#F8DEDC"/>
<path transform="translate(100,866)" d="m0 0 8 6 10 7 11 4 12 4 5 3-4 2-10 1-11-4-8-6-7-7-6-8z" fill="#F8DEDC"/>
<path transform="translate(357,872)" d="m0 0v3l-14 15-14 12-16 15-5 4 2-5 6-10 12-11 17-13 10-8z" fill="#F7DEDC"/>
<path transform="translate(102,865)" d="m0 0 9 1 16 7 10 6 9 7-1 2-12-5-13-4-11-7-7-6z" fill="#F8DFDD"/>
<path transform="translate(360,872)" d="m0 0 2 1-10 14-11 12-12 12-17 12-5 2 6-7 13-12 11-10 8-7 9-9z" fill="#F8E1DF"/>
<path transform="translate(368,860)" d="m0 0 2 2-8 17-10 13-12 13-13 10-12 8h-2v-2l13-9 10-9 12-12 12-16 1-2h2l2-7-4 4-2-1 5-6z" fill="#C1B0AF"/>
<path transform="translate(123,810)" d="m0 0h1l3 20 6 15 6 14-1 4-9-14-6-10-3-10v-9z" fill="#F8DEDC"/>
<path transform="translate(202,1049)" d="m0 0h23l18 2 15 4 5 3-3 3-21 11-3 1h-8l4-2 11-4 9-5h-13l1-2 17-2-17-4-18-2-21-1z" fill="#C1B1B0"/>
<path transform="translate(178 1e3)" d="m0 0h1v14l-5 10-9 11-8 10-2-1 8-14 8-16 5-11z" fill="#F8DEDC"/>
<path transform="translate(300,814)" d="m0 0h1v11l-3 32-1 16-2-3-2-6v-17l4-23z" fill="#F8DEDC"/>
<path transform="translate(97,865)" d="m0 0 3 1 8 11 8 8 12 6 8 1 10-1v2l-4 1h-14l-10-4-11-9-7-9-3-5zm14 8 14 7 16 5 6 4-1 2-10-5-16-5-9-6z" fill="#C1B0AF"/>
<path transform="translate(96,1029)" d="m0 0m-1 1v3l-15 14-8 8-11 14-11 15-9 15h-2l2-6 13-20 10-13 12-13 11-11z" fill="#C1B1B0"/>
<path transform="translate(241 1e3)" d="m0 0 1 2-7 12-10 6-14 6-15 5-4-1 19-8 12-7 14-11z" fill="#F8E0DE"/>
<path transform="translate(97,1076)" d="m0 0h19l23 3 10 3v1h-22l-22-4-12-1z" fill="#F8DFDD"/>
<path transform="translate(96,862)" d="m0 0 11 1 15 5 15 8 11 9 2 6h-2l-1 2-3-8-13-9-17-8-10-2 7 7-1 2-11-9-3-1z" fill="#C3B3B3"/>
<path transform="translate(243 1e3)" d="m0 0 1 3-7 13-7 6-17 8-11 3h-5l3-3 19-7 15-8z" fill="#C0AFAE"/>
<path transform="translate(176,866)" d="m0 0h1v19l-1 14-4 16h-2l-3-10-4-10v-10l2-1 2 15 4 7 2-13 2-26z" fill="#C1B0AF"/>
<path transform="translate(236 1e3)" d="m0 0 2 1-17 13-14 8-4 2h-3v-3l18-11 10-6z" fill="#F8E0DE"/>
<path transform="translate(142,985)" d="m0 0 3 1-3 6-4 9-5 5-10 7-16 11-10 8-1-2 5-5 17-12 11-8 6-7z" fill="#C1B3B2"/>
<path transform="translate(178,853)" d="m0 0h1l1 6v24l-2 15 3-2-1 5-2 2-1-1-2 5h-1l1-12 1-10 1-24z" fill="#F8DFDD"/>
<path transform="translate(367,810)" d="m0 0 1 3-9 11-13 12-35 28-3-1 16-13 14-11 15-13 11-11z" fill="#C1B1B0"/>
<path transform="translate(171,1010)" d="m0 0 1 2-8 18-10 18-1-3 5-15 5-10 6-8z" fill="#F8DEDC"/>
<path transform="translate(144,830)" d="m0 0h2l2 5v18l-3 10v11l2 6-1 4-4-9-2-6h2l-4-10v-2h2l2 5 3-11v-16z" fill="#C0AFAF"/>
<path transform="translate(185,884)" d="m0 0 2 2-1 6-1 3v3l-6 9-4 9-5 2v-3h2v-6l1-2h2l2-6h2v-3l-2 1 1-8 3 1-1 3h2l1-8h2z" fill="#C1B3B2"/>
<path transform="translate(120,829)" d="m0 0h1l3 10 12 20 6 7v3h-3l-6-9-8-11-6-12-1-7z" fill="#C2B3B2"/>
<path transform="translate(1926,653)" d="m0 0 2 1-14 15-8 7-14 11-18 11-10 5-3-1 19-10 12-8 10-8 10-9z" fill="#C1B3B2"/>
<path transform="translate(336,827)" d="m0 0 1 3v2l-11 9-15 15-4 6h-2l2-5 9-11 17-17z" fill="#C0AEAD"/>
<path transform="translate(1903,677)" d="m0 0m-1 1m-1 1m-1 1m-1 1m-2 1h2l-2 4-7 5-1 3-5 1-14 8-8 3-3-1 24-13z" fill="#C6C4C4"/>
<path transform="translate(365,865)" d="m0 0 1 2-3 6-5 1h-2l-8 7-17 13-7 5 1-4 17-13 10-8 6-5 4-1z" fill="#C1B2B1"/>
<path transform="translate(298,814)" d="m0 0h2l-5 25-1 8v18h-3v-19l5-27z" fill="#C1B3B2"/>
<path transform="translate(302,824)" d="m0 0h1l1 5v13l-2 18-2 8h-1v-13z" fill="#F8DEDC"/>
<path transform="translate(97,865)" d="m0 0 3 1 8 11 8 8 12 6v2l-6-1-9-6-9-8-7-11z" fill="#C1B1B1"/>
<path transform="translate(333,909)" d="m0 0 2 2-16 11-4 4-11 5-3-2 6-5 6-2 5-2 14-10z" fill="#C6BBBA"/>
<path transform="translate(199,842)" d="m0 0 1 3-8 14-4 9-1 8-3 2 1-10 5-13 6-10z" fill="#C1B3B2"/>
<path transform="translate(96,1084)" d="m0 0 9 2 12 3h24v2l-3 1h-21l-18-5z" fill="#C1B0AF"/>
<path transform="translate(202,1049)" d="m0 0h23l13 1 4 2v1l-41-2z" fill="#C0AFAE"/>
<path transform="translate(355,910)" d="m0 0 9 1 26 4 17 2 1 2-3 1-12-2-26-4-12-3z" fill="#C4BBBA"/>
<path transform="translate(154,943)" d="m0 0 3 1-3 16-4 16h-3l4-17 2-12z" fill="#C1B1B1"/>
<path transform="translate(198,857)" d="m0 0 1 3-8 17-3 9-4 1v-9l2-1 1 3 9-21z" fill="#C1B1B0"/>
<path transform="translate(233,1006)" d="m0 0h2v2l-18 13-17 8v-3l16-8 13-9z" fill="#C1B2B1"/>
<path transform="translate(147,1080)" d="m0 0 7 1 6 3v2l-19 5v-3l8-2-2-2 2-1-2-1z" fill="#C3B5B4"/>
<path transform="translate(339,915)" d="m0 0 6 2 11 5 17 4 1 3-15-3-12-5-9-4z" fill="#C2B3B3"/>
<path transform="translate(164,884)" d="m0 0h1l2 15 4 7 3-2-2 11h-2l-3-10-4-10v-10z" fill="#C0AEAD"/>
<path transform="translate(180,859)" d="m0 0h2v28l-1 4h-2z" fill="#C0AFAE"/>
<path transform="translate(357,874)" d="m0 0v3l-9 10-9 9-8 6v-3l14-12z" fill="#C1B3B2"/>
<path transform="translate(148,975)" d="m0 0h1l-1 8-4 10-3 6-2-4 1-3 3-3v-6z" fill="#C2B1B0"/>
<path transform="translate(371,804)" d="m0 0 2 1-3 14-3 1 2-8v-4l-11 7 1-4z" fill="#C1B3B2"/>
<path transform="translate(368,860)" d="m0 0 2 2-7 15-4 1 2-5h2l2-7-4 4-2-1 5-6z" fill="#C1B1B1"/>
<path transform="translate(1898,474)" d="m0 0 1 3-7 11-9 10-7 5-3-1 11-8 8-10z" fill="#C1B3B2"/>
<path transform="translate(54,1075)" d="m0 0v3l-13 21h-2l2-6 10-16z" fill="#C0AFAE"/>
<path transform="translate(142,985)" d="m0 0 3 1-3 6-4 9-7 4v-3l6-7z" fill="#C7BBBB"/>
<path transform="translate(203,876)" d="m0 0 1 2-4 9-6 5-7 4-2-1 12-9 5-9z" fill="#C0B0AF"/>
<path transform="translate(177,847)" d="m0 0h2l2 5 1 7h-3l-3 8-1-4 1-14z" fill="#C2B4B3"/>
<path transform="translate(1912,707)" d="m0 0v3l-9 10-5 6-4 3-2-1 4-6 9-7z" fill="#C2B5B4"/>
<path transform="translate(223,1006)" d="m0 0h2l-1 3-19 12-2-1 4-4z" fill="#C1B1B0"/>
<path transform="translate(297,857)" d="m0 0h1v11h2l1-8 3-1v4l2-1-2 6h-2l-2 4-3-1z" fill="#C4B9B9"/>
<path transform="translate(1893,475)" d="m0 0 2 1-7 12-8 8-9 5-2-1 11-7 7-8z" fill="#C1B2B1"/>
<path transform="translate(178 1e3)" d="m0 0h3l-1 2h-2zm-1 2 1 3-3 5-4 9-2-2 2-6-5 4 2-4 6-5z" fill="#C3B5B4"/>
<path transform="translate(84,1077)" d="m0 0 5 2v2l7 2v2l-15-3-4 1v-3z" fill="#C2B5B4"/>
<path transform="translate(96,862)" d="m0 0h6l2 1 1 4 6 6-1 2-11-9-3-1z" fill="#C4B7B6"/>
<path transform="translate(128,1075)" d="m0 0 16 3 3 1-1 3-12-3-8-1z" fill="#C1B3B2"/>
<path transform="translate(335,910)" d="m0 0m-2 1h2l4 5-6-1-13 8-2-1 11-8z" fill="#C0AFAE"/>
<path transform="translate(328,847)" d="m0 0 1 3-12 9-6 5-3-1 16-13z" fill="#C1B3B2"/>
<path transform="translate(1926,653)" d="m0 0 2 1-14 15-4 3-2-1z" fill="#C2B4B3"/>
<path transform="translate(211,1023)" d="m0 0 2 1-2 3-15 5-4-1z" fill="#FBF0F0"/>
<path transform="translate(365,865)" d="m0 0 1 2-3 6-5 1h-2l-3 2 2-5 8-4z" fill="#C8BDBC"/>
<path transform="translate(148,891)" d="m0 0h2l4 18-3-1-3-12z" fill="#C1B0AF"/>
<path transform="translate(104,863)" d="m0 0 10 2 8 3-1 3-14-5-3-1z" fill="#C1B2B1"/>
<path transform="translate(210,859)" d="m0 0h2l-2 6-5 11-3 1 2-6z" fill="#C2B4B3"/>
<path transform="translate(1905,719)" d="m0 0h2l-2 4-7 6-4 2 2-4z" fill="#C0AFAE"/>
<path transform="translate(333,909)" d="m0 0 2 2-16 11-3 3-1-3 16-11z" fill="#C8C3C3"/>
<path transform="translate(367,810)" d="m0 0 1 3-9 11-4 3v-3l9-9z" fill="#C3B8B7"/>
<path transform="translate(179 1e3)" d="m0 0 2 1v14l-1 3h-2v-17z" fill="#C0ADAC"/>
<path transform="translate(173,907)" d="m0 0 4 2-1 5-2 2-4 2v-3h2v-6z" fill="#C5BBBA"/>
<path transform="translate(175,888)" d="m0 0h1v11l-3 6-1-2 2-14z" fill="#C1B2B1"/>
<path transform="translate(204,1018)" d="m0 0m-2 1 2 1v2l-4 1-1 6-3 1v-2l-2-1 4-4z" fill="#CDBEBD"/>
<path transform="translate(210,965)" d="m0 0 2 1-3 3-12 5v-3z" fill="#C2B4B4"/>
<path transform="translate(185,884)" d="m0 0 2 2-1 6-1 3v3l-3-3 1-8h2z" fill="#C2B6B5"/>
<path transform="translate(358,812)" d="m0 0m-2 1h2l-1 3-11 8v-3l5-5z" fill="#C1B0AF"/>
<path transform="translate(175,1039)" d="m0 0m-2 1h2l-2 4-11 7 1-4z" fill="#C1B2B2"/>
<path transform="translate(96,1029)" d="m0 0m-1 1v3l-11 10v-3l5-5z" fill="#C0B0AF"/>
<path transform="translate(235 1e3)" d="m0 0 4 2-14 6v-3z" fill="#C4B7B6"/>
<path transform="translate(154,943)" d="m0 0 3 1-2 11-3 1 1-9z" fill="#C2B6B5"/>
<path transform="translate(217,844)" d="m0 0 1 4-5 11h-2l3-9z" fill="#C0AFAE"/>
<path transform="translate(324,896)" d="m0 0m-1 1 1 3-7 6-3 4h-2l2-4z" fill="#C0AFAE"/>
<path transform="translate(180,896)" d="m0 0 1 3-3 4-1-1-2 5h-1l1-8z" fill="#EADAD9"/>
<path transform="translate(204,832)" d="m0 0 1 3-4 8h-3l2-5z" fill="#C0AFAE"/>
<path transform="translate(217,801)" d="m0 0h1l-1 10-3 3-1-3z" fill="#FBEFEE"/>
<path transform="translate(326,912)" d="m0 0m-1 1m-2 1h2l-1 3-9 6h-2v-2z" fill="#C0AFAE"/>
</svg>
